<?xml version="1.0" standalone="no"?>
<!DOCTYPE svg PUBLIC "-//W3C//DTD SVG 20010904//EN"
 "http://www.w3.org/TR/2001/REC-SVG-20010904/DTD/svg10.dtd">
<svg version="1.0" xmlns="http://www.w3.org/2000/svg"
 width="1080.000000pt" height="1080.000000pt" viewBox="0 0 1080.000000 1080.000000"
 preserveAspectRatio="xMidYMid meet">

<g transform="translate(0.000000,1080.000000) scale(0.100000,-0.100000)"
fill="#000000" stroke="none">
<path d="M1625 9524 c-177 -14 -309 -60 -453 -157 -153 -105 -285 -289 -334
-467 -37 -136 -37 -142 -38 -2907 l0 -2683 -210 0 c-199 0 -212 -1 -262 -24
-29 -13 -65 -37 -81 -53 -34 -36 -67 -124 -67 -177 0 -111 51 -369 99 -498
103 -281 306 -536 564 -711 82 -55 240 -136 307 -157 25 -7 50 -17 55 -21 6
-3 24 -9 40 -12 17 -2 55 -11 85 -19 164 -45 20 -43 4090 -43 3092 0 3869 3
3925 13 122 22 179 34 205 42 14 4 45 13 70 21 25 7 49 16 55 21 5 4 15 8 23
8 19 0 135 56 220 107 106 64 186 127 283 223 79 77 203 233 217 270 3 8 8 17
12 20 18 15 102 198 128 280 57 179 73 268 75 421 2 134 -9 166 -77 226 -65
57 -98 63 -331 63 l-205 0 -2 2748 c-3 2217 -6 2755 -16 2787 -8 22 -18 56
-23 75 -21 74 -52 136 -107 220 -89 134 -196 228 -337 295 -112 53 -184 73
-311 85 -89 8 -7490 12 -7599 4z m7655 -487 c39 -13 114 -57 145 -84 30 -26
83 -106 103 -155 16 -40 17 -224 20 -2765 l2 -2723 -1405 0 c-1242 0 -1405 2
-1405 15 0 13 132 15 1129 15 721 0 1139 4 1156 10 14 5 37 22 50 36 l25 27 0
1565 0 1565 -36 33 c-47 45 -99 47 -146 5 l-33 -29 -5 -1489 -5 -1488 -1066
-3 -1066 -2 -7 72 c-4 40 -9 90 -13 110 l-5 37 931 3 931 3 32 33 33 32 3
1049 2 1048 31 32 c16 18 43 53 59 78 25 39 30 57 30 110 0 77 -24 133 -80
188 l-40 39 0 903 0 904 113 -3 112 -3 5 -626 c5 -595 6 -628 24 -648 10 -11
34 -25 53 -32 29 -9 41 -8 72 6 75 33 71 -9 71 769 l0 696 -29 32 -29 33 -196
3 -196 3 0 97 c0 78 -4 103 -19 125 -39 60 33 57 -1254 57 -1037 0 -1191 -2
-1266 -16 -239 -44 -383 -125 -584 -327 l-127 -129 -128 129 c-198 201 -344
283 -583 327 -126 23 -1434 24 -1479 1 -55 -28 -75 -98 -44 -156 30 -60 19
-59 751 -59 417 0 692 -4 733 -11 83 -13 148 -35 230 -78 97 -50 153 -97 283
-235 l117 -124 0 -411 0 -410 -613 -3 c-574 -3 -615 -4 -641 -21 -53 -35 -57
-62 -54 -357 3 -254 4 -270 24 -297 11 -15 30 -32 41 -37 21 -10 21 -16 25
-405 4 -393 4 -397 30 -473 38 -113 92 -203 172 -283 76 -77 132 -112 351
-224 77 -39 146 -74 153 -79 10 -7 9 -19 -4 -63 -9 -30 -20 -62 -25 -71 -5
-10 -9 -27 -9 -37 0 -11 -4 -23 -10 -26 -6 -3 -10 -15 -10 -26 0 -10 -4 -27
-10 -37 -5 -9 -26 -68 -46 -131 l-38 -113 -59 6 c-33 3 -536 6 -1118 6 l-1059
0 0 595 c0 327 3 595 8 595 4 0 56 -49 115 -108 l108 -109 -30 -32 c-38 -41
-44 -79 -39 -262 3 -153 8 -171 60 -207 20 -15 58 -17 276 -18 l254 -1 131
-130 c73 -72 146 -138 164 -147 46 -23 153 -21 201 3 38 20 87 68 111 110 25
45 26 131 1 189 -12 28 -28 57 -36 63 -24 20 -16 26 42 32 63 6 89 25 111 75
17 41 5 87 -33 123 -25 23 -32 24 -202 27 l-177 3 -217 217 c-120 119 -218
222 -218 228 0 7 7 14 15 18 21 8 55 66 55 94 0 30 -26 74 -54 93 -14 9 -61
16 -136 19 l-115 5 -6 63 c-7 72 -23 94 -82 114 l-37 13 237 238 237 237 20
-34 c33 -59 45 -61 301 -61 327 0 315 -10 315 266 l0 181 -34 34 c-39 39 -89
45 -137 17 -39 -24 -43 -33 -49 -158 l-5 -110 -132 -3 c-73 -1 -133 1 -133 6
0 4 97 105 216 223 118 117 227 234 242 259 36 61 39 166 5 223 l-22 37 33 0
c78 0 141 86 112 153 -29 69 -38 72 -242 75 -204 4 -235 -3 -267 -57 -22 -37
-21 -67 2 -110 l18 -35 -231 -231 c-127 -127 -241 -237 -253 -243 -13 -7 -68
-12 -137 -12 -188 0 -198 -10 -206 -211 l-5 -135 -72 -72 c-39 -40 -74 -72
-77 -72 -3 0 -6 421 -6 935 l0 935 195 0 c202 0 233 5 267 45 43 50 27 134
-33 168 -27 15 -62 17 -302 17 -294 -1 -302 -2 -338 -56 -15 -24 -19 -47 -19
-126 l0 -97 -196 -3 -196 -3 -29 -33 -29 -32 0 -696 c0 -778 -4 -736 71 -769
31 -14 43 -15 72 -6 19 7 43 21 53 32 18 20 19 53 24 648 l5 626 113 3 112 3
0 -916 0 -915 -33 -37 c-52 -60 -62 -89 -61 -168 1 -75 12 -102 66 -160 l28
-31 2 -1062 3 -1062 33 -32 32 -33 931 -3 931 -3 -6 -32 c-3 -18 -8 -67 -12
-110 l-7 -77 -1066 2 -1066 3 -5 1488 -5 1489 -33 29 c-47 42 -99 40 -146 -5
l-36 -33 0 -1565 0 -1565 25 -27 c13 -14 36 -31 50 -36 17 -6 435 -10 1156
-10 997 0 1129 -2 1129 -15 0 -13 -161 -15 -1390 -15 l-1390 0 2 2733 3 2732
29 60 c39 78 111 149 189 185 l62 29 3840 0 c3022 1 3847 -2 3875 -12z m-860
-1474 l0 -928 -79 79 -79 79 -4 121 c-5 183 -19 196 -201 196 l-111 0 -252
252 -253 251 15 28 c19 37 18 65 -3 100 -32 54 -63 61 -267 57 -204 -3 -213
-6 -242 -75 -31 -72 34 -153 123 -153 42 0 43 -1 31 -22 -38 -68 -45 -117 -26
-182 17 -59 33 -79 267 -313 116 -116 211 -216 211 -223 0 -7 -44 -10 -142 -8
l-143 3 -5 110 c-6 125 -10 134 -49 158 -48 28 -98 22 -137 -17 l-34 -34 0
-181 c0 -276 -12 -266 315 -266 174 0 238 3 257 13 29 16 58 61 58 92 0 16 63
-41 250 -228 138 -137 250 -252 250 -255 0 -2 -18 -7 -39 -11 -66 -10 -93 -41
-100 -117 l-6 -64 -115 -5 c-75 -3 -122 -10 -136 -19 -28 -19 -54 -63 -54 -93
0 -32 35 -86 65 -100 14 -6 25 -14 25 -18 0 -4 -96 -103 -212 -221 l-213 -214
-192 -5 -192 -5 -29 -28 c-36 -35 -46 -78 -28 -120 23 -54 48 -69 125 -75 l70
-5 -27 -41 c-55 -82 -63 -136 -33 -215 21 -57 60 -100 114 -130 50 -28 152
-29 205 -2 20 11 96 77 167 148 l130 128 236 0 c334 0 324 -8 324 261 0 179 0
181 -26 215 l-26 33 103 103 c57 57 106 103 109 103 3 0 5 -263 5 -585 l0
-585 -1057 0 c-582 0 -1108 -4 -1169 -10 -111 -9 -196 -27 -267 -57 -46 -20
-73 -10 -113 43 -28 36 -29 41 -32 180 -3 115 0 148 12 173 20 39 51 68 96 90
135 68 447 231 505 264 141 81 257 228 313 395 26 76 26 80 30 473 4 389 4
395 25 405 11 5 30 22 41 37 20 27 21 43 24 297 3 295 -1 322 -54 357 -26 16
-62 18 -404 23 -206 3 -369 9 -362 13 6 5 12 19 12 32 0 13 5 27 10 30 6 3 10
15 10 26 0 10 4 27 9 37 9 19 84 237 108 317 8 28 19 58 24 67 5 10 9 25 9 33
0 8 4 23 9 33 5 9 24 64 42 122 29 95 31 109 21 156 -14 68 -45 114 -105 155
-45 31 -56 34 -121 34 -49 0 -82 -6 -106 -19 -44 -23 -90 -66 -90 -83 0 -7 -4
-13 -10 -13 -5 0 -10 -7 -10 -15 0 -8 -4 -23 -10 -33 -5 -9 -30 -82 -56 -162
-26 -80 -54 -150 -63 -157 -60 -45 -77 -86 -60 -147 9 -32 4 -55 -42 -194 -28
-86 -54 -164 -58 -172 -3 -8 -7 160 -9 373 l-2 388 121 128 c67 71 142 144
168 164 96 73 230 131 336 147 28 4 551 8 1163 9 l1112 1 0 -927z m-2990 -580
c0 -9 -57 -183 -74 -225 l-11 -28 -572 0 -573 0 0 130 0 130 615 0 c338 0 615
-3 615 -7z m1170 -123 l0 -130 -375 0 -375 0 0 24 c0 14 5 28 10 31 6 3 10 15
10 26 0 10 4 27 9 37 5 9 15 37 22 62 25 88 -11 80 364 80 l335 0 0 -130z
m-1340 -381 c0 -14 -39 -138 -51 -161 -5 -10 -9 -27 -9 -37 0 -11 -4 -23 -10
-26 -5 -3 -10 -16 -10 -29 0 -12 -3 -25 -6 -29 -3 -3 -23 -59 -45 -124 -22
-65 -44 -130 -50 -145 l-11 -28 -253 0 -253 0 -32 -36 -31 -36 4 -167 c3 -91
8 -181 12 -200 7 -32 7 -33 -16 -21 -41 23 -126 115 -152 166 -55 108 -57 128
-57 521 l0 363 485 0 c351 0 485 -3 485 -11z m1250 -352 c0 -393 -2 -413 -57
-521 -26 -51 -111 -143 -152 -166 -23 -12 -23 -11 -16 21 4 19 9 109 12 200
l4 167 -31 36 -32 36 -328 0 c-228 0 -331 3 -336 11 -3 6 -2 21 4 32 5 12 17
45 25 72 27 86 79 239 88 257 5 10 9 27 9 37 0 11 5 23 10 26 6 3 10 17 10 30
0 13 5 27 10 30 6 3 10 15 10 25 0 11 5 31 12 45 l11 25 374 0 373 0 0 -363z
m-1520 -459 c0 -15 -88 -284 -101 -310 -5 -10 -9 -27 -9 -37 0 -61 -58 -13
-105 86 -27 57 -62 231 -51 258 4 12 28 15 136 15 97 0 130 -3 130 -12z m1086
-3 c11 -27 -25 -202 -53 -262 -17 -38 -52 -83 -97 -128 -61 -60 -93 -81 -226
-149 -147 -75 -200 -106 -269 -157 l-30 -22 -38 26 c-21 15 -49 36 -62 46
l-24 19 42 128 c23 71 46 137 52 146 5 10 9 27 9 37 0 11 5 23 10 26 6 3 10
15 10 26 0 10 4 27 9 37 5 9 19 49 31 87 12 39 28 89 37 113 l16 42 289 0
c249 0 289 -2 294 -15z m-3239 -367 c29 -29 53 -56 53 -61 0 -4 -26 -7 -57 -5
l-58 3 -3 58 c-2 31 0 57 5 57 4 0 31 -23 60 -52z m5191 -15 l-3 -48 -42 -3
c-28 -2 -43 1 -43 9 0 12 70 87 83 88 4 1 7 -20 5 -46z m-2720 -565 c39 -39
48 -43 92 -43 44 0 53 4 92 43 24 23 46 42 50 42 3 0 7 -51 10 -114 4 -108 6
-119 41 -189 44 -89 102 -145 203 -198 38 -20 159 -82 269 -139 237 -123 258
-135 311 -191 56 -59 91 -118 115 -191 16 -51 19 -90 19 -245 l0 -184 -142 3
-142 3 -36 60 c-40 68 -133 167 -200 212 -25 16 -112 65 -195 108 -168 87
-214 116 -275 175 -61 59 -80 70 -120 70 -39 0 -56 -9 -117 -68 -63 -60 -116
-94 -280 -179 -81 -42 -168 -90 -193 -106 -67 -45 -160 -144 -200 -212 l-36
-60 -142 -3 -142 -3 0 184 c0 155 3 194 19 245 24 74 74 153 132 209 48 46
222 145 254 145 11 0 52 -1 90 -3 50 -1 80 3 103 15 45 23 97 78 117 123 11
25 33 49 60 67 62 39 113 98 148 174 27 59 31 79 35 179 3 62 7 113 10 113 4
0 26 -19 50 -42z m-748 -415 c0 -12 -26 -31 -78 -58 -108 -55 -151 -86 -225
-160 l-64 -65 -906 0 -907 0 0 150 0 150 1090 0 c1031 0 1090 -1 1090 -17z
m3860 -133 l0 -150 -909 0 -909 0 -34 39 c-62 71 -138 128 -241 181 -56 29
-109 59 -117 66 -12 12 154 14 1098 14 l1112 0 0 -150z m-2977 -534 c43 -34
126 -82 300 -171 98 -50 207 -127 207 -145 0 -6 -195 -10 -550 -10 -322 0
-550 4 -550 9 0 23 110 96 265 176 94 48 195 107 225 130 30 24 56 44 58 44 2
1 22 -14 45 -33z m-1473 -1073 l5 -273 33 -32 32 -33 1338 -3 c916 -2 1348 0
1372 8 19 5 44 23 55 38 18 25 20 47 25 297 l5 270 1647 2 c925 1 1650 -2
1653 -7 12 -20 -58 -194 -115 -285 -69 -111 -188 -236 -287 -303 -65 -44 -184
-103 -255 -126 -148 -49 86 -46 -4070 -46 -2757 0 -3891 3 -3925 11 -122 28
-250 76 -338 127 -92 53 -223 173 -299 274 -45 58 -118 199 -135 258 -7 25
-17 55 -22 67 -5 14 -4 23 4 26 7 3 746 4 1642 3 l1630 -1 5 -272z m2628 15
l3 -128 -1201 0 -1200 0 0 123 c0 68 3 127 7 130 3 4 542 6 1197 5 l1191 -3 3
-127z"/>
<path d="M4053 7976 c-52 -24 -63 -58 -63 -198 1 -134 7 -157 56 -189 26 -17
48 -19 208 -19 162 0 182 2 211 20 40 25 59 69 52 116 -12 73 -55 94 -197 94
l-100 0 0 40 c0 109 -81 175 -167 136z"/>
<path d="M2635 7943 c-41 -11 -75 -44 -86 -85 -6 -25 -9 -103 -7 -197 2 -129
6 -161 21 -182 38 -57 118 -66 169 -20 33 29 33 30 38 143 l5 113 88 3 87 3 0
-88 c0 -151 23 -192 110 -201 48 -4 52 -3 85 32 l35 37 0 181 c0 168 -1 182
-21 210 -38 53 -66 58 -296 57 -114 -1 -217 -4 -228 -6z"/>
<path d="M4723 7793 c-12 -2 -34 -18 -48 -34 -32 -39 -34 -104 -5 -141 34 -44
63 -50 258 -46 l182 3 31 32 c27 26 32 40 32 76 0 52 -25 91 -67 107 -28 9
-335 12 -383 3z"/>
<path d="M3389 6003 c-31 -19 -59 -63 -59 -93 0 -34 28 -79 63 -100 29 -18 51
-20 208 -20 167 0 178 1 210 23 69 46 69 137 1 186 -28 20 -42 21 -214 21
-151 0 -188 -3 -209 -17z"/>
<path d="M6650 7977 c-41 -21 -70 -74 -70 -128 l0 -49 -100 0 c-147 0 -200
-30 -200 -110 1 -44 18 -76 56 -101 26 -17 48 -19 209 -19 161 0 183 2 209 19
49 32 55 55 56 189 0 141 -11 175 -65 198 -42 17 -63 17 -95 1z"/>
<path d="M7694 7936 c-17 -8 -41 -27 -53 -44 -20 -28 -21 -42 -21 -210 l0
-181 35 -37 c33 -35 37 -36 85 -32 87 9 110 50 110 201 l0 88 88 -3 87 -3 5
-113 c5 -113 5 -114 38 -143 37 -33 85 -38 130 -15 51 26 57 53 57 241 0 265
7 259 -305 262 -174 2 -232 0 -256 -11z"/>
<path d="M6979 5990 c-63 -51 -57 -137 13 -180 30 -18 50 -20 206 -20 193 0
218 6 252 63 24 39 25 70 4 107 -33 55 -55 60 -256 60 l-183 0 -36 -30z"/>
<path d="M5350 4473 c-19 -10 -42 -31 -50 -48 -19 -38 -20 -197 -2 -241 34
-81 165 -84 203 -5 19 40 23 179 6 226 -25 70 -94 100 -157 68z"/>
</g>
</svg>
