<?xml version="1.0" standalone="no"?>
<!DOCTYPE svg PUBLIC "-//W3C//DTD SVG 20010904//EN"
 "http://www.w3.org/TR/2001/REC-SVG-20010904/DTD/svg10.dtd">
<svg version="1.0" xmlns="http://www.w3.org/2000/svg"
 width="512.000000pt" height="512.000000pt" viewBox="0 0 512.000000 512.000000"
 preserveAspectRatio="xMidYMid meet">

<g transform="translate(0.000000,512.000000) scale(0.100000,-0.100000)"
fill="#000000" stroke="none">
<path d="M760 4479 c-154 -30 -283 -168 -310 -330 -6 -42 -10 -504 -10 -1316
l0 -1253 -97 0 c-120 0 -160 -16 -182 -73 -31 -82 29 -302 117 -430 68 -97
183 -190 297 -239 133 -56 18 -53 2025 -53 1734 0 1859 1 1920 17 195 53 358
185 444 358 50 102 76 200 76 292 0 50 -4 62 -29 90 l-29 33 -116 3 -116 4 -2
1301 -3 1302 -32 67 c-57 120 -157 201 -281 227 -65 13 -3602 14 -3672 0z
m3680 -228 c19 -10 49 -37 65 -60 l30 -43 3 -1284 2 -1284 -1940 0 -1940 0 0
1274 c0 879 3 1283 11 1303 13 34 44 70 84 94 29 18 92 19 1840 19 1743 0
1812 -1 1845 -19z m370 -2907 c0 -9 -14 -45 -31 -81 -44 -92 -127 -174 -225
-220 l-79 -38 -1850 -3 c-2067 -3 -1916 -8 -2033 67 -95 62 -179 170 -207 269
l-6 22 2215 0 c2029 0 2216 -1 2216 -16z"/>
<path d="M2863 3903 c-57 -11 -58 -14 -367 -939 -163 -489 -296 -899 -296
-912 0 -57 46 -101 106 -102 83 0 63 -47 388 928 164 492 296 903 296 922 0
45 -23 78 -66 96 -18 8 -35 13 -36 13 -2 -1 -13 -4 -25 -6z"/>
<path d="M1348 3292 l-318 -317 0 -49 0 -50 303 -304 c166 -167 314 -310 329
-318 77 -40 158 10 158 99 0 28 -30 62 -265 297 -146 146 -265 270 -265 275 0
5 119 129 265 275 238 239 265 269 265 298 0 40 -23 88 -49 102 -11 5 -39 10
-63 10 l-43 0 -317 -318z"/>
<path d="M3412 3585 c-34 -28 -46 -73 -31 -113 5 -15 127 -144 269 -287 l260
-260 -256 -255 c-145 -144 -262 -270 -270 -288 -30 -68 22 -142 100 -142 40 0
45 5 361 320 l320 320 0 45 0 45 -320 320 c-318 317 -321 320 -362 320 -30 0
-50 -7 -71 -25z"/>
</g>
</svg>
